<?xml version="1.0" standalone="no"?>
<!DOCTYPE svg PUBLIC "-//W3C//DTD SVG 20010904//EN"
 "http://www.w3.org/TR/2001/REC-SVG-20010904/DTD/svg10.dtd">
<svg version="1.0" xmlns="http://www.w3.org/2000/svg"
 width="800.000000pt" height="800.000000pt" viewBox="0 0 800.000000 800.000000"
 preserveAspectRatio="xMidYMid meet">
<metadata>
Created by potrace 1.14, written by Peter Selinger 2001-2017
</metadata>
<g transform="translate(0.000000,800.000000) scale(0.100000,-0.100000)"
fill="#000000" stroke="none">
<path d="M5940 4363 c-139 -15 -314 -65 -425 -121 -188 -95 -347 -257 -434
-444 -70 -147 -85 -227 -86 -428 0 -107 5 -198 13 -235 48 -221 136 -379 293
-530 152 -145 321 -244 701 -409 361 -156 449 -205 536 -300 62 -68 84 -130
84 -232 0 -64 -4 -85 -31 -139 -75 -152 -240 -229 -486 -227 -146 0 -242 23
-364 84 -104 52 -234 172 -314 288 l-54 79 -299 -173 c-164 -96 -300 -179
-302 -185 -5 -15 78 -151 139 -227 69 -87 212 -220 297 -277 198 -132 432
-216 695 -248 139 -17 454 -6 578 19 545 113 865 453 895 950 21 338 -88 632
-310 839 -169 159 -364 270 -801 458 -245 105 -346 159 -420 227 -86 79 -110
134 -110 253 0 78 4 97 28 147 33 67 80 111 157 147 74 34 222 42 316 16 118
-32 220 -116 301 -247 l35 -57 82 53 c44 28 174 112 289 185 114 73 207 139
207 145 0 6 -25 49 -56 95 -67 100 -196 237 -280 297 -141 101 -335 171 -537
193 -91 10 -260 12 -337 4z"/>
<path d="M3605 4318 c-3 -7 -6 -625 -7 -1373 l-3 -1360 -23 -60 c-31 -83 -70
-135 -131 -172 -98 -59 -283 -70 -404 -23 -78 29 -166 113 -238 225 -32 50
-64 98 -72 109 -12 17 -31 7 -307 -159 -162 -98 -299 -181 -303 -185 -11 -10
32 -94 96 -190 64 -96 211 -242 307 -304 199 -131 435 -196 710 -196 237 0
415 36 586 120 325 158 500 445 534 875 7 84 10 583 8 1415 l-3 1285 -373 3
c-293 2 -374 0 -377 -10z"/>
</g>
</svg>
